<?xml version="1.0" encoding="UTF-8"?>
<svg id="Layer_1" xmlns="http://www.w3.org/2000/svg" version="1.1" viewBox="0 0 384 384">
  <!-- Generator: Adobe Illustrator 29.2.1, SVG Export Plug-In . SVG Version: 2.1.0 Build 116)  -->
  <defs>
    <style>
      .st0 {
        fill: #fff;
      }
    </style>
  </defs>
  <path class="st0" d="M384.03.02v384H.03V.02h384ZM262.97,65.58c-15.76-12.54-32.51-25.17-53.45-15.45-19.19,8.91-27.05,35.48-29.49,54.88-1.73.44-1.24-.34-1.71-.95-7.25-9.25-10.58-17.71-20.4-26.03-31.57-26.74-61.85-11.51-78.78,21.71-1.59,3.13-4.95,13.14-6.32,14.68-1.01,1.13-6.51,3.01-8.52,4.23-21.27,12.89-31.3,32.45-28.08,57.79.36,2.84,4.15,11.56,4.09,12.2-.04.51-2.93,3.06-3.69,4.33-7.94,13.28-6.96,33.33,7.13,41.93,12.16,7.42,16.31,3.03,28.25.2,22.37-5.31,43.91-14.87,65.11-19.64,73.66-16.57,71.29,64.92,111.52,100.31,8.8,7.74,26.57,17.96,37.73,21.52,2.08.66,15.79,4.04,16.65,3.62,2.74-1.32.62-8.81.06-11.34-4.11-.6-7.2,1.35-11.66,1.18-28.32-1.11-51.15-30.96-63.52-53.49-11.33-20.64-28.87-54.3-3.26-71.77,18.76-12.8,44.85-6.3,66.57-9.93,18.65-3.12,42.21-8.34,54.56-23.44,16.69-20.39,5.01-29.2-10.47-43.49-1.46-1.35-6.34-4.48-7.09-5.66-1.2-1.86-1.66-7.13-2.45-9.55-5.67-17.4-15.53-29.41-33.02-35.98-8.04-3.02-17.8-1.68-23.8-6.2-2.03-1.53-3.93-4.06-5.96-5.67Z"/>
  <path d="M262.97,65.58c2.02,1.61,3.92,4.14,5.96,5.67,6,4.52,15.76,3.18,23.8,6.2,17.49,6.57,27.35,18.58,33.02,35.98.79,2.42,1.25,7.69,2.45,9.55.76,1.17,5.64,4.31,7.09,5.66,15.48,14.3,27.16,23.11,10.47,43.49-12.35,15.09-35.91,20.32-54.56,23.44-21.71,3.63-47.81-2.87-66.57,9.93-25.6,17.47-8.07,51.14,3.26,71.77,12.37,22.53,35.2,52.38,63.52,53.49,4.46.17,7.55-1.78,11.66-1.18.56,2.53,2.68,10.02-.06,11.34-.86.41-14.58-2.96-16.65-3.62-11.16-3.56-28.93-13.77-37.73-21.52-40.23-35.39-37.87-116.88-111.52-100.31-21.2,4.77-42.74,14.34-65.11,19.64-11.94,2.83-16.09,7.22-28.25-.2-14.09-8.6-15.07-28.66-7.13-41.93.76-1.28,3.65-3.82,3.69-4.33.05-.64-3.73-9.36-4.09-12.2-3.22-25.33,6.81-44.89,28.08-57.79,2.01-1.22,7.51-3.1,8.52-4.23,1.37-1.54,4.72-11.55,6.32-14.68,16.92-33.22,47.21-48.45,78.78-21.71,9.81,8.31,13.15,16.78,20.4,26.03.48.61-.02,1.38,1.71.95,2.44-19.41,10.3-45.97,29.49-54.88,20.94-9.72,37.68,2.92,53.45,15.45ZM211.8,157.25c8.52,9.37,24.68-2.85,16.23-13.61-9.32-11.87-25.54,3.38-16.23,13.61ZM140.51,147.25c-1.37,1.23-3.11,5.86-3.16,7.72-.38,15.09,25.2,14.1,20.58-3.47-1.89-7.18-12.32-8.84-17.42-4.25ZM202.17,160.82c-3.32-.15-5.35,5.2-8.39,7.08-4.19,2.59-9.18,3.01-13.74,1.24-3.95-1.54-7.72-8.43-11.64-4.12-1.69,5.04,2.89,9.68,7.13,11.62,8.74,4.01,22.5,1.95,28.07-6.42,1.98-2.98,3.52-9.18-1.44-9.4Z"/>
  <path class="st0" d="M202.17,160.82c4.96.22,3.42,6.42,1.44,9.4-5.57,8.38-19.33,10.43-28.07,6.42-4.24-1.95-8.82-6.59-7.13-11.62,3.91-4.31,7.68,2.58,11.64,4.12,4.56,1.78,9.56,1.36,13.74-1.24,3.03-1.88,5.07-7.22,8.39-7.08Z"/>
  <path class="st0" d="M140.51,147.25c5.1-4.59,15.53-2.93,17.42,4.25,4.62,17.57-20.96,18.56-20.58,3.47.05-1.85,1.79-6.49,3.16-7.72Z"/>
  <path class="st0" d="M211.8,157.25c-9.3-10.23,6.92-25.48,16.23-13.61,8.44,10.76-7.71,22.98-16.23,13.61Z"/>
</svg>